<svg width="123" height="47" viewBox="0 0 123 47" fill="none" xmlns="http://www.w3.org/2000/svg">
<path d="M47.2385 1.712V1.212H46.7385H40.5305H40.2065L40.0741 1.50774L24.1465 37.096L8.21889 1.50774L8.08652 1.212H7.76251H1.49051H0.990509V1.712V46V46.5H1.49051H7.31451H7.81451V46V15.2567L21.642 46.204L21.7743 46.5H22.0985H26.1945H26.5191L26.6512 46.2036L40.4145 15.3259V46V46.5H40.9145H46.7385H47.2385V46V1.712ZM62.9395 1.392V0.891998H62.4395H56.6155H56.1155V1.392V46V46.5H56.6155H62.4395H62.9395V46V1.392ZM109.697 1.56852L109.953 0.891998H109.23H103.086H102.736L102.616 1.22081L89.0695 38.3956L75.5233 1.22081L75.4035 0.891998H75.0535H68.8455H68.1224L68.3777 1.56852L85.2097 46.1765L85.3318 46.5H85.6775H92.3975H92.7432L92.8653 46.1765L109.697 1.56852ZM121.94 1.392V0.891998H121.44H115.616H115.116V1.392V46V46.5H115.616H121.44H121.94V46V1.392Z" fill="#3E96E7" stroke="#3E96E7"/>
</svg>
